<mxfile host="Electron" modified="2024-06-17T20:27:28.888Z" agent="Mozilla/5.0 (Windows NT 10.0; Win64; x64) AppleWebKit/537.36 (KHTML, like Gecko) draw.io/23.0.2 Chrome/120.0.6099.109 Electron/28.1.0 Safari/537.36" etag="nT7jSeo-BFoqt-6_c6NX" version="23.0.2" type="device">
  <diagram name="Страница — 1" id="tdFnuWs6suJgDKONsz01">
    <mxGraphModel dx="2288" dy="1894" grid="1" gridSize="10" guides="1" tooltips="1" connect="1" arrows="1" fold="1" page="1" pageScale="1" pageWidth="827" pageHeight="1169" math="0" shadow="0">
      <root>
        <mxCell id="0" />
        <mxCell id="1" parent="0" />
        <mxCell id="UsT-WaW-ZbqeoSH0nrA4-20" style="edgeStyle=orthogonalEdgeStyle;rounded=0;orthogonalLoop=1;jettySize=auto;html=1;" edge="1" parent="1" source="UsT-WaW-ZbqeoSH0nrA4-1" target="UsT-WaW-ZbqeoSH0nrA4-2">
          <mxGeometry relative="1" as="geometry" />
        </mxCell>
        <mxCell id="UsT-WaW-ZbqeoSH0nrA4-1" value="Registered customer" style="shape=umlActor;verticalLabelPosition=bottom;verticalAlign=top;html=1;outlineConnect=0;" vertex="1" parent="1">
          <mxGeometry x="120" y="140" width="30" height="60" as="geometry" />
        </mxCell>
        <mxCell id="UsT-WaW-ZbqeoSH0nrA4-2" value="Web customer" style="shape=umlActor;verticalLabelPosition=bottom;verticalAlign=top;html=1;outlineConnect=0;" vertex="1" parent="1">
          <mxGeometry x="20" y="270" width="30" height="60" as="geometry" />
        </mxCell>
        <mxCell id="UsT-WaW-ZbqeoSH0nrA4-21" style="edgeStyle=orthogonalEdgeStyle;rounded=0;orthogonalLoop=1;jettySize=auto;html=1;" edge="1" parent="1" source="UsT-WaW-ZbqeoSH0nrA4-3" target="UsT-WaW-ZbqeoSH0nrA4-2">
          <mxGeometry relative="1" as="geometry" />
        </mxCell>
        <mxCell id="UsT-WaW-ZbqeoSH0nrA4-3" value="New customer" style="shape=umlActor;verticalLabelPosition=bottom;verticalAlign=top;html=1;outlineConnect=0;" vertex="1" parent="1">
          <mxGeometry x="120" y="390" width="30" height="60" as="geometry" />
        </mxCell>
        <mxCell id="UsT-WaW-ZbqeoSH0nrA4-4" value="Autentication" style="shape=umlActor;verticalLabelPosition=bottom;verticalAlign=top;html=1;outlineConnect=0;" vertex="1" parent="1">
          <mxGeometry x="530" y="70" width="30" height="60" as="geometry" />
        </mxCell>
        <mxCell id="UsT-WaW-ZbqeoSH0nrA4-5" value="Identify provider" style="shape=umlActor;verticalLabelPosition=bottom;verticalAlign=top;html=1;outlineConnect=0;" vertex="1" parent="1">
          <mxGeometry x="530" y="180" width="30" height="60" as="geometry" />
        </mxCell>
        <mxCell id="UsT-WaW-ZbqeoSH0nrA4-6" value="Credit payment service" style="shape=umlActor;verticalLabelPosition=bottom;verticalAlign=top;html=1;outlineConnect=0;" vertex="1" parent="1">
          <mxGeometry x="530" y="290" width="30" height="60" as="geometry" />
        </mxCell>
        <mxCell id="UsT-WaW-ZbqeoSH0nrA4-7" value="Paypal" style="shape=umlActor;verticalLabelPosition=bottom;verticalAlign=top;html=1;outlineConnect=0;" vertex="1" parent="1">
          <mxGeometry x="530" y="410" width="30" height="60" as="geometry" />
        </mxCell>
        <mxCell id="UsT-WaW-ZbqeoSH0nrA4-14" value="View items" style="ellipse;whiteSpace=wrap;html=1;" vertex="1" parent="1">
          <mxGeometry x="274" y="-30" width="140" height="70" as="geometry" />
        </mxCell>
        <mxCell id="UsT-WaW-ZbqeoSH0nrA4-16" value="Make Purchase" style="ellipse;whiteSpace=wrap;html=1;" vertex="1" parent="1">
          <mxGeometry x="273.5" y="160" width="140" height="70" as="geometry" />
        </mxCell>
        <mxCell id="UsT-WaW-ZbqeoSH0nrA4-17" value="Checkout" style="ellipse;whiteSpace=wrap;html=1;" vertex="1" parent="1">
          <mxGeometry x="274" y="310" width="140" height="70" as="geometry" />
        </mxCell>
        <mxCell id="UsT-WaW-ZbqeoSH0nrA4-18" value="Client register" style="ellipse;whiteSpace=wrap;html=1;" vertex="1" parent="1">
          <mxGeometry x="274" y="460" width="140" height="70" as="geometry" />
        </mxCell>
        <mxCell id="UsT-WaW-ZbqeoSH0nrA4-24" value="" style="endArrow=none;html=1;rounded=0;" edge="1" parent="1" source="UsT-WaW-ZbqeoSH0nrA4-1" target="UsT-WaW-ZbqeoSH0nrA4-14">
          <mxGeometry width="50" height="50" relative="1" as="geometry">
            <mxPoint x="300" y="300" as="sourcePoint" />
            <mxPoint x="350" y="250" as="targetPoint" />
          </mxGeometry>
        </mxCell>
        <mxCell id="UsT-WaW-ZbqeoSH0nrA4-25" value="" style="endArrow=none;html=1;rounded=0;exitX=0.5;exitY=0.5;exitDx=0;exitDy=0;exitPerimeter=0;" edge="1" parent="1" source="UsT-WaW-ZbqeoSH0nrA4-1" target="UsT-WaW-ZbqeoSH0nrA4-16">
          <mxGeometry width="50" height="50" relative="1" as="geometry">
            <mxPoint x="120" y="264" as="sourcePoint" />
            <mxPoint x="262" y="200" as="targetPoint" />
          </mxGeometry>
        </mxCell>
        <mxCell id="UsT-WaW-ZbqeoSH0nrA4-26" value="" style="endArrow=none;html=1;rounded=0;" edge="1" parent="1" source="UsT-WaW-ZbqeoSH0nrA4-3" target="UsT-WaW-ZbqeoSH0nrA4-14">
          <mxGeometry width="50" height="50" relative="1" as="geometry">
            <mxPoint x="160" y="393" as="sourcePoint" />
            <mxPoint x="300" y="410" as="targetPoint" />
          </mxGeometry>
        </mxCell>
        <mxCell id="UsT-WaW-ZbqeoSH0nrA4-27" value="" style="endArrow=none;html=1;rounded=0;" edge="1" parent="1" source="UsT-WaW-ZbqeoSH0nrA4-3" target="UsT-WaW-ZbqeoSH0nrA4-18">
          <mxGeometry width="50" height="50" relative="1" as="geometry">
            <mxPoint x="150" y="420.75029478633337" as="sourcePoint" />
            <mxPoint x="287.05859852604317" y="470.0027113901398" as="targetPoint" />
          </mxGeometry>
        </mxCell>
        <mxCell id="UsT-WaW-ZbqeoSH0nrA4-28" value="" style="endArrow=none;html=1;rounded=0;" edge="1" parent="1" source="UsT-WaW-ZbqeoSH0nrA4-18" target="UsT-WaW-ZbqeoSH0nrA4-4">
          <mxGeometry width="50" height="50" relative="1" as="geometry">
            <mxPoint x="410" y="490" as="sourcePoint" />
            <mxPoint x="460" y="440" as="targetPoint" />
          </mxGeometry>
        </mxCell>
        <mxCell id="UsT-WaW-ZbqeoSH0nrA4-29" value="" style="endArrow=none;html=1;rounded=0;" edge="1" parent="1" source="UsT-WaW-ZbqeoSH0nrA4-17" target="UsT-WaW-ZbqeoSH0nrA4-7">
          <mxGeometry width="50" height="50" relative="1" as="geometry">
            <mxPoint x="460" y="540" as="sourcePoint" />
            <mxPoint x="510" y="490" as="targetPoint" />
          </mxGeometry>
        </mxCell>
        <mxCell id="UsT-WaW-ZbqeoSH0nrA4-30" value="" style="endArrow=none;html=1;rounded=0;" edge="1" parent="1" source="UsT-WaW-ZbqeoSH0nrA4-17" target="UsT-WaW-ZbqeoSH0nrA4-6">
          <mxGeometry width="50" height="50" relative="1" as="geometry">
            <mxPoint x="440" y="460" as="sourcePoint" />
            <mxPoint x="490" y="410" as="targetPoint" />
          </mxGeometry>
        </mxCell>
        <mxCell id="UsT-WaW-ZbqeoSH0nrA4-31" value="" style="endArrow=none;html=1;rounded=0;" edge="1" parent="1" source="UsT-WaW-ZbqeoSH0nrA4-17" target="UsT-WaW-ZbqeoSH0nrA4-5">
          <mxGeometry width="50" height="50" relative="1" as="geometry">
            <mxPoint x="399.9953035471162" y="316.9272525599308" as="sourcePoint" />
            <mxPoint x="544.19" y="220.07462686567158" as="targetPoint" />
          </mxGeometry>
        </mxCell>
        <mxCell id="UsT-WaW-ZbqeoSH0nrA4-32" value="" style="endArrow=none;html=1;rounded=0;exitX=0.668;exitY=0.038;exitDx=0;exitDy=0;exitPerimeter=0;" edge="1" parent="1" source="UsT-WaW-ZbqeoSH0nrA4-17" target="UsT-WaW-ZbqeoSH0nrA4-4">
          <mxGeometry width="50" height="50" relative="1" as="geometry">
            <mxPoint x="440" y="210" as="sourcePoint" />
            <mxPoint x="584" y="113" as="targetPoint" />
          </mxGeometry>
        </mxCell>
        <mxCell id="UsT-WaW-ZbqeoSH0nrA4-33" value="" style="endArrow=none;html=1;rounded=0;" edge="1" parent="1" source="UsT-WaW-ZbqeoSH0nrA4-16" target="UsT-WaW-ZbqeoSH0nrA4-5">
          <mxGeometry width="50" height="50" relative="1" as="geometry">
            <mxPoint x="380" y="250" as="sourcePoint" />
            <mxPoint x="430" y="200" as="targetPoint" />
          </mxGeometry>
        </mxCell>
        <mxCell id="UsT-WaW-ZbqeoSH0nrA4-34" value="" style="endArrow=none;html=1;rounded=0;" edge="1" parent="1" source="UsT-WaW-ZbqeoSH0nrA4-14" target="UsT-WaW-ZbqeoSH0nrA4-4">
          <mxGeometry width="50" height="50" relative="1" as="geometry">
            <mxPoint x="386" y="117" as="sourcePoint" />
            <mxPoint x="530" y="20" as="targetPoint" />
          </mxGeometry>
        </mxCell>
        <mxCell id="UsT-WaW-ZbqeoSH0nrA4-35" value="&amp;lt;&amp;lt;include&amp;gt;&amp;gt;" style="endArrow=open;endSize=12;dashed=1;html=1;rounded=0;" edge="1" parent="1" source="UsT-WaW-ZbqeoSH0nrA4-16" target="UsT-WaW-ZbqeoSH0nrA4-14">
          <mxGeometry x="0.2" y="-6" width="160" relative="1" as="geometry">
            <mxPoint x="320" y="290" as="sourcePoint" />
            <mxPoint x="480" y="290" as="targetPoint" />
            <mxPoint x="1" as="offset" />
          </mxGeometry>
        </mxCell>
        <mxCell id="UsT-WaW-ZbqeoSH0nrA4-36" value="&amp;lt;&amp;lt;Include&amp;gt;&amp;gt;" style="endArrow=open;endSize=12;dashed=1;html=1;rounded=0;" edge="1" parent="1" source="UsT-WaW-ZbqeoSH0nrA4-16" target="UsT-WaW-ZbqeoSH0nrA4-17">
          <mxGeometry width="160" relative="1" as="geometry">
            <mxPoint x="320" y="290" as="sourcePoint" />
            <mxPoint x="480" y="290" as="targetPoint" />
          </mxGeometry>
        </mxCell>
      </root>
    </mxGraphModel>
  </diagram>
</mxfile>
